<?xml version="1.0" standalone="no"?>
<!DOCTYPE svg PUBLIC "-//W3C//DTD SVG 20010904//EN"
 "http://www.w3.org/TR/2001/REC-SVG-20010904/DTD/svg10.dtd">
<svg version="1.0" xmlns="http://www.w3.org/2000/svg"
 width="658.000000pt" height="658.000000pt" viewBox="0 0 658.000000 658.000000"
 preserveAspectRatio="xMidYMid meet">
<metadata>
Created by potrace 1.14, written by Peter Selinger 2001-2017
</metadata>
<g transform="translate(0.000000,658.000000) scale(0.100000,-0.100000)"
fill="#000000" stroke="none">
<path d="M0 3290 l0 -3290 3290 0 3290 0 0 3290 0 3290 -3290 0 -3290 0 0
-3290z m2789 2575 c157 -41 284 -162 335 -317 3 -10 15 -18 28 -18 13 0 194
18 403 40 208 22 383 40 387 40 4 0 8 -340 8 -756 l0 -755 80 84 c120 127 262
218 415 267 106 34 333 39 471 11 191 -39 326 -113 456 -249 171 -180 274
-425 329 -787 26 -168 36 -524 20 -690 -42 -436 -188 -787 -417 -1005 -211
-200 -436 -280 -753 -267 -154 6 -243 27 -355 84 -97 48 -152 90 -236 180 -39
42 -72 74 -74 72 -2 -2 -9 -58 -17 -124 l-14 -120 -372 -3 -373 -2 0 72 -1 73
-34 -94 c-81 -223 -180 -377 -360 -557 -94 -94 -161 -151 -239 -203 -264 -176
-610 -315 -1041 -421 -280 -68 -261 -66 -269 -37 -18 74 -126 610 -123 613 2
2 48 15 103 29 240 62 481 149 622 226 265 142 428 325 512 574 65 192 64 173
67 1128 l4 867 -511 0 -510 0 0 285 0 285 890 0 890 0 0 418 -1 417 -24 -45
c-53 -101 -147 -180 -266 -221 -91 -32 -257 -32 -347 0 -207 72 -322 233 -322
452 0 222 132 395 347 454 65 18 225 18 292 0z"/>
<path d="M4333 3860 c-115 -24 -255 -134 -346 -270 l-37 -55 0 -603 0 -603 29
-42 c34 -50 122 -134 171 -164 64 -39 144 -56 245 -51 79 3 101 8 158 36 164
81 264 275 297 579 17 152 8 586 -14 705 -59 316 -177 458 -396 473 -36 2 -84
0 -107 -5z"/>
</g>
</svg>
