<?xml version="1.0" standalone="no"?>
<!DOCTYPE svg PUBLIC "-//W3C//DTD SVG 20010904//EN"
 "http://www.w3.org/TR/2001/REC-SVG-20010904/DTD/svg10.dtd">
<svg version="1.0" xmlns="http://www.w3.org/2000/svg"
 width="1340.000000pt" height="1340.000000pt" viewBox="0 0 1340.000000 1340.000000"
 preserveAspectRatio="xMidYMid meet">
<metadata>
Created by potrace 1.14, written by Peter Selinger 2001-2017
</metadata>
<g transform="translate(0.000000,1340.000000) scale(0.100000,-0.100000)"
fill="#000000" stroke="none">
<path d="M4789 10710 c-77 -39 -89 -59 -89 -145 0 -38 -3 -86 -6 -106 l-6 -36
-147 -6 c-80 -4 -164 -11 -186 -17 -22 -5 -56 -13 -75 -16 -37 -6 -102 -22
-124 -30 -14 -5 -27 33 -47 134 -11 56 -16 66 -48 86 -20 13 -45 33 -55 45
-11 11 -29 21 -42 21 -12 0 -24 5 -26 11 -5 15 -234 -5 -305 -26 -86 -25 -186
-43 -277 -49 -49 -4 -108 -11 -130 -17 -54 -15 -74 -19 -116 -24 -72 -9 -100
-16 -100 -24 0 -12 -59 -19 -63 -8 -1 5 -41 0 -92 -12 -195 -47 -181 -41 -194
-78 -7 -18 -15 -33 -19 -33 -100 -6 -261 -9 -480 -8 -246 0 -272 -1 -266 -16
7 -19 -7 -21 -24 -4 -9 9 -12 9 -12 0 0 -7 -9 -12 -20 -12 -11 0 -20 4 -20 9
0 11 -30 19 -47 14 -15 -5 -11 -25 19 -123 11 -36 27 -72 34 -80 15 -15 85
-25 289 -39 66 -5 174 -16 240 -25 66 -8 141 -16 167 -16 53 0 49 6 73 -110
36 -170 36 -172 75 -395 11 -66 25 -140 30 -165 5 -25 14 -72 21 -105 25 -130
16 -119 169 -198 101 -52 107 -53 260 -32 14 2 86 11 160 20 74 8 158 20 185
25 28 5 75 12 105 16 65 7 612 103 615 106 1 2 23 30 49 63 48 59 48 60 42
115 -6 53 -49 285 -101 551 -14 69 -25 132 -25 141 0 20 116 73 221 99 89 23
157 22 238 -2 l43 -13 -6 -190 c-4 -105 -9 -267 -12 -359 l-6 -169 28 -30 c32
-33 166 -138 201 -156 12 -7 50 -12 85 -12 35 0 101 -5 147 -10 47 -5 143 -12
215 -15 72 -4 145 -10 161 -15 17 -5 85 -12 153 -14 67 -3 126 -7 131 -10 4
-3 71 -7 148 -10 l141 -5 59 59 c53 53 60 65 72 122 27 133 31 166 32 258 0
52 5 100 10 106 10 12 15 62 29 304 6 96 15 206 20 244 4 38 5 78 0 90 -9 21
-9 21 -9 -1 -1 -13 -4 -23 -9 -23 -18 0 -34 48 -33 101 1 57 0 58 -36 76 -20
10 -41 27 -47 38 -17 30 -33 45 -50 45 -8 0 -20 8 -25 19 -13 23 -75 32 -261
36 -74 2 -146 6 -160 10 -14 3 -90 10 -170 15 -80 6 -234 17 -342 25 -265 20
-291 19 -359 -15z m453 -234 c84 -3 194 -10 243 -15 50 -6 132 -13 184 -16 52
-3 98 -8 101 -10 4 -3 54 -7 111 -11 99 -6 106 -7 137 -37 30 -29 32 -34 32
-105 0 -41 -6 -100 -14 -131 -8 -31 -17 -94 -20 -141 -4 -47 -9 -107 -11 -135
-3 -27 -9 -117 -14 -199 -7 -101 -15 -154 -24 -165 -8 -9 -13 -22 -11 -29 1
-7 0 -8 -3 -2 -3 7 -10 7 -16 2 -11 -8 -404 9 -515 22 -26 3 -99 8 -162 12
-63 3 -128 7 -145 9 -16 2 -51 5 -77 6 -44 2 -53 9 -49 33 1 5 -16 28 -39 51
-40 41 -40 42 -36 101 2 32 5 192 7 354 3 382 4 390 40 416 27 19 33 20 79 8
27 -7 118 -15 202 -18z m-1395 -88 c23 -8 35 -20 39 -38 8 -37 23 -104 34
-152 6 -24 17 -86 25 -138 8 -52 24 -144 36 -205 11 -60 25 -132 31 -160 26
-139 27 -178 7 -203 -10 -14 -19 -21 -19 -17 0 5 -8 1 -17 -7 -10 -9 -43 -18
-73 -21 -30 -3 -100 -12 -155 -20 -55 -9 -138 -21 -185 -27 -47 -6 -125 -17
-175 -25 -49 -8 -135 -19 -190 -25 -55 -6 -114 -13 -131 -15 -49 -7 -70 24
-93 140 -12 55 -26 123 -32 150 -11 51 -37 172 -85 395 l-26 125 29 55 30 55
89 17 c49 9 123 19 164 23 41 3 113 13 160 21 47 7 128 21 180 29 52 9 136 24
185 34 110 23 129 24 172 9z"/>
<path d="M5478 10190 c-89 -28 -138 -93 -138 -184 0 -63 14 -98 57 -137 59
-56 134 -78 202 -59 123 33 179 184 107 289 -47 67 -161 113 -228 91z m131
-149 c12 -21 5 -31 -21 -31 -11 0 -18 7 -18 18 0 35 23 43 39 13z"/>
<path d="M3371 10073 c-46 -23 -100 -78 -117 -119 -40 -94 10 -207 108 -249
79 -32 157 -8 226 70 45 51 58 92 49 156 -16 120 -158 195 -266 142z m121
-158 c13 -30 -1 -52 -27 -42 -22 9 -29 35 -15 52 18 21 29 19 42 -10z"/>
<path d="M2968 10513 c7 -3 16 -2 19 1 4 3 -2 6 -13 5 -11 0 -14 -3 -6 -6z"/>
<path d="M4783 8967 c-23 -7 -44 -14 -47 -17 -2 -3 -6 -36 -7 -75 -1 -38 -8
-81 -16 -95 -7 -14 -13 -33 -13 -43 0 -11 -15 -24 -41 -35 -34 -15 -51 -16
-99 -8 -54 9 -59 8 -93 -18 -29 -22 -67 -74 -67 -91 0 -9 206 -50 250 -50 92
1 196 74 205 143 11 82 17 234 11 266 -8 40 -14 42 -83 23z"/>
<path d="M6106 8092 c-4 -6 -2 -20 4 -31 13 -26 13 -31 -2 -26 -9 4 -20 -17
-33 -60 -10 -36 -22 -65 -26 -65 -6 0 -15 -23 -17 -44 0 -5 -6 -12 -13 -17
-10 -6 -10 -11 1 -24 13 -15 11 -20 -11 -39 -14 -13 -29 -33 -32 -47 -3 -13
-18 -73 -33 -134 -14 -60 -46 -182 -69 -270 -50 -183 -71 -265 -91 -350 -8
-33 -16 -67 -18 -75 -19 -66 -84 -322 -141 -550 -38 -151 -70 -277 -72 -279
-2 -3 -56 47 -121 111 -198 196 -363 355 -459 444 -50 46 -101 99 -112 117
-11 18 -47 56 -81 85 l-61 54 6 -104 c3 -56 8 -272 10 -478 3 -206 7 -505 10
-665 7 -413 14 -858 20 -1160 3 -143 8 -494 11 -780 4 -286 8 -613 11 -727 5
-239 14 -223 -97 -190 l-60 17 0 80 c0 44 -3 215 -6 380 -6 338 -10 588 -18
1210 -4 237 -9 583 -12 770 -2 187 -7 513 -10 725 -6 522 -11 858 -13 899 -1
34 -1 34 -22 15 -12 -10 -46 -50 -77 -89 -30 -38 -80 -97 -112 -130 -31 -33
-80 -90 -109 -127 -29 -38 -58 -71 -65 -75 -7 -5 -30 -30 -50 -58 -21 -27 -79
-95 -130 -150 -50 -55 -125 -140 -166 -190 -106 -128 -95 -120 -123 -83 -14
18 -37 58 -52 88 -15 30 -45 82 -66 116 -22 34 -39 64 -39 68 0 4 -17 33 -37
64 -20 31 -55 91 -76 132 -22 41 -44 80 -49 87 -5 7 -19 30 -31 53 -37 68
-138 242 -174 297 -18 28 -33 54 -33 57 0 5 -51 95 -159 276 -31 52 -65 111
-76 131 -116 208 -172 303 -185 316 -8 8 -49 39 -90 69 -41 30 -91 70 -110 88
-19 18 -54 45 -78 61 -24 16 -49 36 -55 45 -7 9 -24 25 -39 34 -22 14 -28 15
-28 5 -1 -17 -40 28 -40 45 0 6 -9 17 -20 23 -16 11 -18 10 -14 -1 3 -8 1 -17
-5 -21 -6 -3 -11 -2 -11 4 0 15 -31 2 -63 -28 -16 -14 -51 -56 -79 -93 -35
-46 -56 -65 -67 -61 -13 4 -14 3 -1 -5 12 -9 12 -14 -5 -31 -21 -24 -35 -20
-15 4 7 8 9 15 4 15 -5 -1 -21 -18 -37 -38 -76 -102 -119 -152 -127 -147 -10
6 -68 -57 -100 -110 -22 -38 -106 -144 -177 -224 -18 -20 -33 -42 -33 -48 0
-7 -7 -13 -15 -13 -14 0 -42 -39 -35 -50 1 -3 -8 -11 -21 -17 -13 -7 -18 -13
-10 -13 11 0 11 -3 1 -15 -7 -8 -16 -12 -21 -9 -5 3 -9 -1 -9 -9 0 -8 -17 -34
-38 -58 -21 -24 -70 -87 -109 -139 -71 -95 -113 -141 -113 -124 0 5 14 25 31
44 16 19 35 44 40 55 6 11 -2 7 -16 -10 -47 -54 -109 -140 -112 -154 -1 -7
-15 -28 -31 -45 -75 -81 -122 -134 -148 -166 -16 -19 -31 -37 -35 -40 -7 -6
-109 -141 -157 -208 -19 -26 -50 -65 -70 -88 -21 -22 -59 -68 -87 -102 -27
-33 -54 -61 -58 -61 -5 -1 -17 -11 -28 -23 -14 -17 -17 -18 -13 -5 11 30 -9
17 -66 -45 l-54 -59 -7 -117 c-4 -64 -5 -191 -2 -282 3 -91 1 -199 -5 -241 -6
-48 -6 -135 -1 -235 5 -87 11 -285 14 -439 4 -256 15 -487 32 -655 3 -36 7
-159 9 -275 4 -380 5 -490 5 -505 -1 -22 7 -953 8 -967 1 -6 25 -23 53 -37 29
-15 64 -33 78 -41 36 -21 215 -90 280 -108 30 -8 95 -29 145 -46 49 -17 99
-33 110 -36 11 -2 36 -9 55 -15 19 -5 54 -13 77 -15 48 -6 108 -29 118 -46 4
-5 13 -8 21 -5 8 3 13 0 11 -6 -1 -7 67 -34 163 -64 232 -73 662 -209 740
-232 55 -17 763 -239 1235 -387 853 -268 817 -258 851 -246 17 6 37 11 45 11
10 0 14 14 16 48 1 26 4 111 8 189 l7 143 37 29 c20 16 52 33 71 38 33 9 35
11 32 49 -5 70 -3 224 3 247 5 17 4 19 -4 7 -18 -25 -12 -1 16 71 16 41 47 93
75 126 26 32 48 61 48 65 0 4 7 5 15 2 10 -4 15 0 15 10 0 9 10 20 23 25 13 5
38 26 57 48 19 21 37 37 41 36 3 -1 24 13 45 31 22 18 62 45 89 60 28 14 77
47 110 71 55 41 147 85 178 85 7 0 19 6 26 13 11 10 12 9 7 -1 -6 -10 -1 -11
21 -6 15 4 36 11 45 15 9 5 32 9 50 10 30 1 31 2 8 8 -24 7 -23 8 10 14 19 3
82 6 138 6 61 0 109 5 117 11 9 8 29 8 66 2 39 -7 56 -7 65 2 10 10 3 13 -32
11 -24 0 -50 2 -57 7 -6 4 25 8 71 8 53 0 82 -4 82 -11 0 -6 -7 -9 -15 -6 -8
4 -17 2 -20 -3 -7 -12 65 -13 92 -3 15 6 13 9 -12 14 -21 4 -12 6 30 6 57 0
154 -25 181 -48 7 -6 17 -8 22 -5 5 3 24 -6 42 -19 33 -24 55 -31 121 -39 41
-5 149 -72 149 -92 0 -7 8 -20 18 -30 37 -38 71 -87 66 -96 -3 -5 0 -15 6 -23
10 -12 9 -15 -4 -15 -14 0 -16 -6 -10 -35 4 -21 2 -35 -4 -35 -17 0 -32 -56
-19 -70 9 -10 9 -14 0 -17 -7 -3 -13 -9 -13 -14 0 -6 4 -8 8 -5 7 4 100 25
177 39 11 2 31 9 45 15 l25 10 -25 10 c-14 6 -19 11 -12 11 14 1 -9 53 -34 79
-15 15 -19 78 -5 86 4 3 8 16 7 28 -1 13 7 29 16 36 10 7 16 18 12 23 -3 5 6
19 20 30 15 11 23 26 19 34 -3 8 0 15 7 15 7 0 10 6 7 14 -5 14 24 32 91 57
19 7 52 36 81 73 38 48 65 70 118 96 75 38 96 47 73 31 -33 -24 6 -9 52 19 56
35 106 47 220 56 69 5 100 2 185 -20 56 -14 116 -32 134 -41 35 -19 49 -10 49
33 0 12 4 22 9 22 5 0 7 -19 4 -42 -9 -72 10 -32 24 50 31 183 35 227 38 407
2 182 9 255 23 255 4 0 6 -35 5 -77 -2 -61 0 -72 7 -48 14 44 21 275 8 275 -6
0 -8 16 -4 43 3 23 6 61 5 85 0 23 4 42 9 42 5 0 12 35 16 77 4 43 11 80 17
83 23 15 60 730 40 783 -6 15 -6 37 -1 54 4 15 9 22 9 16 2 -22 21 -14 21 8 0
11 -4 18 -9 14 -15 -9 -23 32 -16 75 10 58 23 49 18 -12 -3 -39 -2 -49 6 -38
14 19 14 120 1 120 -5 0 -10 9 -10 21 0 11 -4 18 -9 15 -14 -9 -32 20 -25 40
4 13 3 15 -3 6 -8 -11 -11 -11 -19 0 -25 35 -44 79 -39 88 3 6 2 10 -4 10 -12
0 -57 88 -48 96 3 3 13 -8 22 -26 9 -18 19 -29 22 -26 3 3 -9 28 -26 56 -17
28 -31 53 -31 56 0 3 -16 32 -36 64 -24 38 -41 57 -50 53 -8 -3 -14 0 -14 7 0
6 5 8 10 5 20 -12 9 9 -64 118 -46 70 -73 121 -72 137 1 19 -3 24 -18 22 -14
-3 -17 1 -13 13 4 9 -15 54 -49 113 -92 159 -116 194 -127 180 -6 -9 -7 -8 -3
5 5 15 -35 96 -68 137 -7 8 -18 28 -25 44 -11 28 -11 29 6 15 17 -13 17 -13 1
6 -9 11 -37 56 -63 100 -26 44 -65 104 -86 133 -22 28 -37 52 -34 52 13 0
-103 203 -157 275 -21 28 -38 60 -38 72 0 12 -4 25 -10 28 -13 8 -44 75 -37
81 6 6 -29 63 -116 194 -28 41 -52 87 -53 102 -2 32 -76 180 -111 223 -36 46
-153 224 -153 235 0 16 -112 194 -141 224 -15 16 -36 45 -45 65 -10 20 -31 57
-48 83 -17 25 -46 70 -63 100 -48 78 -78 113 -87 100z m37 -882 c58 -65 15
-160 -73 -160 -101 0 -133 127 -46 182 41 25 83 17 119 -22z m-3691 -367 c33
-37 40 -69 23 -110 -19 -45 -72 -69 -120 -53 -103 34 -79 190 30 190 32 0 47
-6 67 -27z m-1302 -83 c0 -5 -5 -10 -11 -10 -5 0 -7 5 -4 10 3 6 8 10 11 10 2
0 4 -4 4 -10z m5113 -620 c38 -42 37 -92 -2 -131 -49 -48 -125 -38 -156 21
-21 40 -19 72 6 104 43 54 105 57 152 6z m-2228 -34 c47 -48 44 -111 -8 -149
-64 -48 -157 -2 -157 79 0 81 108 127 165 70z m1046 -15 c68 -68 8 -184 -85
-167 -48 9 -81 48 -81 98 0 33 6 45 33 69 44 40 93 40 133 0z m2229 -31 c0 -5
-9 -6 -20 -3 -20 5 -25 15 -13 26 7 8 33 -11 33 -23z m80 -150 c0 -5 -2 -10
-4 -10 -3 0 -8 5 -11 10 -3 6 -1 10 4 10 6 0 11 -4 11 -10z m-198 -169 c27
-24 33 -36 33 -71 0 -72 -76 -121 -138 -89 -63 32 -77 111 -28 160 40 40 89
40 133 0z m316 -31 c17 -27 27 -50 23 -50 -9 0 -61 82 -61 94 0 13 9 3 38 -44z
m-5765 -31 c63 -32 77 -111 28 -160 -43 -43 -92 -40 -138 6 -32 32 -35 40 -30
73 11 69 83 110 140 81z m1169 -26 c61 -59 17 -163 -69 -163 -49 0 -78 21 -93
66 -15 45 1 89 44 116 39 24 80 17 118 -19z m2617 -87 c91 -47 50 -186 -55
-186 -38 0 -94 59 -94 100 0 23 9 42 34 66 37 37 70 43 115 20z m2065 -2 c9
-24 7 -28 -9 -14 -17 14 -20 30 -6 30 5 0 12 -7 15 -16z m-1168 -528 c25 -24
34 -43 34 -66 0 -41 -56 -100 -94 -100 -105 0 -145 136 -55 186 42 23 78 17
115 -20z m-5390 -4 c80 -64 40 -182 -62 -182 -37 0 -94 60 -94 97 1 81 97 133
156 85z m2967 -72 c40 -45 34 -101 -17 -142 -24 -20 -77 -23 -107 -8 -23 13
-49 61 -49 93 0 29 34 75 64 88 34 14 79 1 109 -31z m1158 -10 c24 -13 49 -61
49 -96 0 -38 -59 -94 -100 -94 -41 0 -100 56 -100 95 0 77 84 130 151 95z
m2312 -220 c55 -43 56 -116 1 -159 -54 -43 -144 -10 -159 59 -19 85 90 153
158 100z m-5470 -154 c36 -33 43 -70 24 -112 -46 -96 -187 -68 -187 38 0 85
102 131 163 74z m1008 -105 c63 -64 16 -171 -76 -171 -37 0 -85 48 -92 92 -5
33 -2 41 30 73 46 46 95 49 138 6z m4989 -130 c0 -6 -4 -13 -10 -16 -5 -3 -10
1 -10 9 0 9 5 16 10 16 6 0 10 -4 10 -9z m-8 -153 c-7 -7 -12 -8 -12 -2 0 14
12 26 19 19 2 -3 -1 -11 -7 -17z m-4022 -23 c61 -32 72 -112 21 -157 -41 -36
-88 -37 -129 -3 -53 44 -47 120 12 156 38 23 58 24 96 4z m1266 -59 c67 -67
23 -167 -74 -166 -48 1 -92 51 -92 105 0 39 59 95 100 95 23 0 42 -9 66 -34z
m2759 2 c-8 -37 -12 -44 -21 -35 -9 9 6 67 18 67 6 0 7 -13 3 -32z m-1474 -16
c85 -76 -13 -213 -112 -156 -63 37 -68 119 -12 164 37 29 86 26 124 -8z m1456
-134 c-3 -8 -6 -5 -6 6 -1 11 2 17 5 13 3 -3 4 -12 1 -19z m-8 -140 c0 -41 -3
-56 -8 -43 -7 19 -3 105 5 105 2 0 4 -28 3 -62z m-6644 -212 c65 -28 79 -111
26 -158 -41 -37 -88 -37 -130 -2 -25 21 -31 33 -31 66 0 51 14 76 53 93 40 18
41 18 82 1z m5916 -255 c40 -40 40 -89 0 -133 -24 -27 -36 -33 -71 -33 -35 0
-47 6 -72 34 -26 29 -30 39 -25 75 12 84 108 117 168 57z m-1388 -242 c63 -32
77 -111 28 -160 -47 -47 -121 -36 -155 23 -47 79 45 179 127 137z m-3280 -20
c63 -29 72 -116 16 -163 -95 -80 -217 57 -130 145 32 31 71 38 114 18z m1288
-558 c51 -52 33 -128 -37 -157 -68 -29 -142 30 -131 104 13 81 109 111 168 53z
m-2335 -85 c24 -24 34 -43 34 -66 0 -47 -55 -100 -105 -100 -101 0 -131 139
-40 188 38 21 75 14 111 -22z m1223 -451 c39 -38 36 -98 -7 -136 -44 -40 -93
-40 -133 0 -22 22 -29 39 -29 68 1 91 104 133 169 68z m1301 -560 c92 -48 61
-185 -42 -185 -106 0 -136 150 -38 189 35 14 47 13 80 -4z"/>
<path d="M4289 8075 c-1 -3 -2 -8 -3 -12 -1 -5 -8 -26 -14 -48 -11 -36 -9 -45
11 -84 33 -65 59 -80 162 -92 50 -5 97 -14 106 -19 9 -4 22 -4 30 1 16 9 80 9
74 0 -6 -11 109 4 135 18 45 24 70 54 70 82 0 15 -5 31 -12 35 -6 4 -57 17
-112 30 -56 12 -137 31 -181 42 -155 40 -263 59 -266 47z"/>
<path d="M6990 6661 c0 -6 4 -13 10 -16 6 -3 7 1 4 9 -7 18 -14 21 -14 7z"/>
<path d="M764 6338 l-19 -23 23 19 c21 18 27 26 19 26 -2 0 -12 -10 -23 -22z"/>
<path d="M707 6268 c-48 -60 -56 -81 -12 -33 36 40 60 75 51 75 -3 0 -20 -19
-39 -42z"/>
<path d="M561 6092 l-33 -47 41 43 c41 43 47 52 34 52 -5 -1 -23 -22 -42 -48z"/>
<path d="M7440 5870 c6 -11 13 -20 16 -20 2 0 0 9 -6 20 -6 11 -13 20 -16 20
-2 0 0 -9 6 -20z"/>
<path d="M7680 5447 c0 -6 47 -78 57 -87 3 -3 0 6 -7 20 -15 29 -50 76 -50 67z"/>
<path d="M8025 4570 c-3 -5 -1 -10 4 -10 6 0 11 5 11 10 0 6 -2 10 -4 10 -3 0
-8 -4 -11 -10z"/>
<path d="M7941 3564 c0 -11 3 -14 6 -6 3 7 2 16 -1 19 -3 4 -6 -2 -5 -13z"/>
<path d="M6015 2370 c3 -5 11 -10 16 -10 6 0 7 5 4 10 -3 6 -11 10 -16 10 -6
0 -7 -4 -4 -10z"/>
</g>
</svg>
