<?xml version="1.0" standalone="no"?>
<!DOCTYPE svg PUBLIC "-//W3C//DTD SVG 20010904//EN"
 "http://www.w3.org/TR/2001/REC-SVG-20010904/DTD/svg10.dtd">
<svg version="1.0" xmlns="http://www.w3.org/2000/svg"
 width="1200.000000pt" height="1200.000000pt" viewBox="0 0 1200.000000 1200.000000"
 preserveAspectRatio="xMidYMid meet">
<metadata>
Created by potrace 1.14, written by Peter Selinger 2001-2017
</metadata>
<g transform="translate(0.000000,1200.000000) scale(0.100000,-0.100000)"
fill="#000000" stroke="none">
<path d="M7490 7460 c-30 -16 -77 -38 -105 -50 -63 -27 -110 -69 -119 -106 -4
-16 -14 -126 -22 -244 -8 -118 -18 -218 -22 -222 -5 -5 -125 -10 -267 -13
-312 -6 -317 -6 -425 -33 -47 -12 -130 -30 -185 -41 -88 -17 -154 -33 -232
-57 -19 -5 -23 -1 -33 38 -6 23 -17 61 -25 83 -7 22 -16 63 -19 90 -19 139
-55 235 -88 235 -13 0 -89 53 -142 99 -29 25 -58 40 -85 45 -24 4 -44 13 -48
22 -6 17 -31 17 -308 -1 -91 -6 -300 -42 -327 -56 -54 -29 -366 -86 -518 -94
-189 -10 -242 -18 -380 -61 -30 -9 -67 -16 -82 -16 -14 1 -32 -5 -38 -13 -8
-9 -19 -11 -33 -6 -12 4 -37 5 -57 0 -19 -4 -60 -10 -91 -14 -45 -5 -58 -10
-62 -26 -3 -12 -14 -19 -30 -19 -14 0 -38 -5 -53 -11 -33 -12 -87 -3 -64 11
40 25 -43 17 -105 -10 -11 -4 -56 -15 -100 -24 -44 -9 -120 -25 -170 -36 -49
-12 -107 -25 -129 -29 -44 -10 -52 -19 -60 -71 -3 -20 -15 -48 -25 -62 l-20
-25 -198 0 c-161 -1 -204 -4 -228 -17 -34 -18 -162 -22 -241 -7 -45 9 -498 14
-724 8 -73 -1 -94 -5 -92 -15 1 -8 -7 -16 -18 -19 -11 -3 -20 -12 -20 -19 0
-17 -10 -17 -45 -4 -23 9 -28 7 -32 -10 -3 -11 -14 -20 -25 -20 -25 0 -68 29
-68 46 0 20 -47 36 -82 29 -32 -7 -34 -18 -13 -59 9 -16 13 -36 10 -45 -6 -19
19 -108 63 -226 38 -102 48 -108 207 -116 66 -4 149 -13 185 -22 40 -9 144
-17 269 -21 204 -6 246 -11 268 -28 6 -5 63 -12 125 -15 62 -2 127 -9 143 -14
17 -5 80 -12 140 -15 61 -3 137 -8 170 -12 l59 -7 13 -45 c8 -25 21 -81 29
-125 9 -44 22 -100 30 -125 7 -25 18 -76 23 -115 5 -38 23 -139 40 -223 31
-154 86 -456 102 -567 5 -33 18 -96 28 -140 10 -44 19 -96 20 -115 1 -19 10
-66 20 -105 11 -38 25 -103 32 -142 20 -116 43 -142 214 -233 145 -78 170 -89
197 -90 14 0 41 -12 58 -27 25 -20 34 -23 40 -13 7 11 11 10 25 -3 12 -12 27
-16 53 -12 191 26 265 34 274 29 5 -4 20 -2 31 4 12 6 94 18 182 27 88 8 207
23 265 32 58 9 129 17 159 19 30 2 75 8 100 13 41 9 162 27 231 35 14 2 50 8
80 14 30 5 96 15 145 22 50 6 100 16 112 20 12 5 86 18 165 30 78 11 177 27
218 35 144 28 236 44 345 61 l110 17 50 52 c62 64 137 160 160 204 15 30 16
43 5 115 -7 44 -18 110 -25 146 -7 36 -16 94 -20 130 -4 36 -11 72 -15 81 -12
21 -57 250 -65 324 -3 33 -14 98 -25 145 -10 47 -26 121 -35 165 -8 44 -29
148 -45 230 -16 83 -30 169 -30 193 l0 43 88 40 c48 22 110 51 138 64 52 25
209 71 299 88 84 16 236 19 295 7 108 -23 187 -46 204 -61 11 -9 8 -255 -8
-664 -11 -313 -19 -584 -19 -703 l1 -124 33 -35 c29 -29 99 -86 221 -178 14
-11 63 -48 107 -83 114 -89 124 -92 288 -90 76 1 188 -4 248 -11 210 -23 321
-33 425 -37 322 -14 343 -15 391 -34 42 -17 83 -20 272 -24 150 -4 242 -10
284 -20 42 -11 137 -17 303 -21 133 -2 245 -7 249 -9 19 -12 85 21 119 58 20
23 52 54 72 69 19 15 44 40 55 56 11 15 28 40 38 54 15 22 31 93 51 232 1 11
7 29 14 41 6 11 10 36 10 55 -1 19 4 59 11 89 6 30 14 141 17 245 5 159 9 198
26 239 12 31 18 60 14 78 -3 16 -1 39 5 50 6 12 13 78 14 147 2 69 6 162 9
206 4 44 8 127 11 185 10 218 42 519 56 536 8 10 7 19 -5 35 l-15 22 -7 -27
c-8 -34 -22 -29 -56 20 -37 52 -51 107 -43 165 4 26 4 72 0 101 -7 59 -1 56
-107 60 -25 1 -42 18 -18 18 6 0 10 5 10 11 0 6 -9 8 -20 4 -17 -5 -20 -2 -20
20 0 18 -6 29 -20 32 -22 6 -27 29 -8 35 8 3 1 12 -15 22 -15 10 -27 25 -27
33 0 11 -7 13 -24 9 -36 -9 -55 2 -71 40 -13 32 -17 34 -64 34 -65 0 -64 0
-80 13 -17 14 -47 16 -281 16 -196 1 -380 14 -520 37 -47 8 -175 19 -285 24
-110 6 -252 15 -315 20 -63 6 -178 15 -255 20 -77 4 -210 13 -295 19 -85 5
-216 12 -290 15 -133 4 -136 4 -190 -24z m450 -471 c74 -20 667 -48 692 -33 4
3 31 -2 60 -10 29 -8 91 -18 138 -21 47 -4 137 -13 200 -20 63 -7 130 -10 149
-7 34 5 183 -12 256 -28 60 -14 125 -19 282 -19 l141 -1 55 -45 c99 -80 100
-82 98 -268 -1 -91 -5 -165 -11 -171 -6 -6 -10 -25 -10 -42 0 -18 -4 -35 -9
-39 -13 -7 -22 -69 -26 -180 -2 -49 -7 -103 -10 -120 -11 -58 -25 -230 -20
-253 3 -13 2 -28 -1 -34 -4 -7 -9 -38 -11 -71 -2 -32 -5 -80 -8 -105 -5 -45
-12 -155 -20 -327 -9 -170 -14 -191 -53 -230 -28 -27 -32 -35 -18 -35 11 0 16
-6 14 -17 -4 -22 -28 -29 -28 -9 0 20 -14 20 -31 0 -9 -12 -23 -14 -53 -10
-23 3 -106 6 -186 8 -80 1 -167 6 -195 10 -27 4 -102 10 -165 12 -63 3 -146 7
-185 10 -106 9 -464 34 -515 36 -25 1 -63 3 -85 5 -22 2 -137 10 -255 18 -228
16 -300 25 -300 37 0 5 -21 29 -46 55 -48 50 -53 77 -6 32 28 -27 52 -35 52
-18 0 5 -33 40 -74 78 -62 57 -76 76 -86 116 -9 33 -9 51 -2 60 7 8 12 116 13
307 2 275 6 608 13 1065 l3 189 44 38 c63 55 95 68 133 56 17 -5 47 -14 66
-19z m-194 -16 c-10 -10 -19 5 -10 18 6 11 8 11 12 0 2 -7 1 -15 -2 -18z
m-2257 -197 c70 -25 78 -35 91 -104 4 -26 15 -76 23 -112 41 -174 49 -210 62
-280 8 -41 23 -142 35 -225 11 -82 26 -168 32 -190 6 -22 12 -56 15 -75 2 -19
8 -53 13 -75 5 -22 15 -76 21 -120 6 -44 20 -106 30 -138 11 -32 17 -62 14
-67 -3 -5 4 -49 15 -97 12 -49 25 -128 30 -178 6 -49 12 -101 15 -115 6 -28 0
-40 -30 -56 -11 -6 -24 -20 -29 -31 -19 -40 -100 -66 -246 -77 -30 -3 -80 -10
-110 -16 -56 -12 -119 -21 -265 -41 -44 -6 -109 -14 -145 -19 -36 -5 -92 -14
-125 -20 -33 -6 -132 -20 -220 -30 -163 -20 -258 -34 -285 -43 -8 -3 -60 -8
-114 -12 -55 -3 -102 -8 -106 -10 -8 -5 -70 -13 -160 -20 -41 -4 -104 -11
-139 -16 l-63 -10 -44 36 c-25 20 -46 48 -50 63 -3 15 -10 36 -14 47 -5 11
-13 43 -18 70 -43 234 -96 490 -111 535 -5 14 -23 104 -41 200 -18 96 -36 184
-40 195 -8 21 -22 72 -40 140 -5 22 -10 58 -10 80 -1 38 -18 118 -31 140 -3 6
-7 28 -8 50 -2 22 -7 48 -12 57 -17 33 -8 69 41 165 65 126 67 129 120 136 25
4 81 14 125 22 170 34 334 56 431 59 94 3 179 16 232 37 13 5 41 9 62 9 22 0
59 4 82 10 56 12 235 40 318 50 36 4 92 14 125 23 61 15 128 28 245 48 36 6
76 14 90 19 48 15 124 10 189 -14z m-3529 -82 c0 -9 -7 -14 -17 -12 -25 5 -28
28 -4 28 12 0 21 -6 21 -16z m208 5 c-17 -7 -38 -7 -60 0 -30 8 -28 9 27 9 50
0 56 -1 33 -9z m8099 -2091 c-3 -8 -6 -5 -6 6 -1 11 2 17 5 13 3 -3 4 -12 1
-19z"/>
<path d="M8802 6351 c-104 -39 -167 -95 -219 -193 -26 -49 -28 -62 -28 -168 0
-111 1 -117 33 -176 43 -80 100 -134 192 -182 97 -51 185 -68 266 -52 157 32
270 137 308 286 22 86 20 122 -11 216 -23 71 -35 90 -87 143 -42 42 -85 73
-140 99 -70 35 -88 39 -170 43 -73 3 -102 0 -144 -16z m307 -287 c12 -15 21
-32 21 -39 0 -25 -35 -44 -75 -42 -33 2 -41 7 -43 26 -5 32 5 67 24 85 19 19
42 9 73 -30z"/>
<path d="M4539 6132 c-94 -38 -188 -121 -242 -213 -15 -25 -32 -76 -39 -117
-44 -256 137 -462 395 -451 68 3 94 10 148 36 90 45 177 130 220 218 32 65 34
76 34 170 0 93 -2 105 -33 167 -37 75 -101 139 -178 178 -67 33 -234 40 -305
12z m219 -309 c30 -44 34 -64 17 -89 -30 -47 -125 -14 -125 42 0 67 72 98 108
47z"/>
<path d="M7475 3865 c-108 -24 -138 -33 -154 -50 -13 -13 -15 -38 -13 -159 3
-143 3 -144 -22 -169 -27 -27 -33 -51 -16 -62 15 -9 12 -25 -4 -25 -7 0 -19
-13 -26 -29 -8 -21 -27 -36 -68 -54 -119 -51 -111 -50 -207 -27 -122 29 -130
27 -254 -78 -22 -18 -42 -45 -46 -60 -3 -15 -13 -35 -22 -44 -27 -30 -12 -37
162 -78 330 -78 384 -77 548 8 103 54 112 61 152 122 40 61 43 72 54 170 7 58
17 144 23 191 16 129 -10 362 -40 358 -4 -1 -34 -7 -67 -14z"/>
<path d="M10133 2033 c-4 -9 3 -32 14 -53 12 -20 24 -53 28 -73 6 -31 5 -36
-8 -31 -9 3 -22 19 -29 35 -19 43 -45 37 -39 -8 1 -7 -4 -23 -11 -35 -7 -13
-13 -27 -14 -33 0 -5 -7 -26 -16 -45 -8 -19 -18 -54 -21 -77 -9 -56 -27 -93
-45 -93 -8 0 -12 -6 -9 -14 3 -8 -3 -26 -13 -39 -17 -21 -18 -26 -5 -43 23
-30 18 -41 -40 -96 -42 -39 -55 -58 -55 -80 0 -16 -8 -46 -19 -68 -10 -21 -29
-89 -42 -152 -12 -62 -26 -114 -31 -116 -4 -2 -8 -17 -8 -33 0 -17 -5 -39 -10
-49 -6 -11 -12 -41 -14 -67 -2 -26 -6 -55 -9 -63 -3 -8 -13 -44 -22 -79 -9
-35 -22 -80 -29 -100 -22 -62 -67 -224 -81 -296 -2 -11 -14 -54 -25 -95 -20
-71 -50 -206 -50 -222 0 -5 79 -8 175 -8 l174 0 -19 43 c-94 206 182 389 341
226 17 -18 38 -47 45 -65 25 -60 13 -172 -21 -196 -5 -4 263 -8 598 -8 572 0
607 1 607 18 0 14 -2 15 -10 2 -8 -12 -10 -10 -10 11 0 25 -40 118 -81 189
-11 19 -30 55 -42 80 -12 24 -28 51 -34 60 -7 8 -23 29 -35 46 -13 17 -49 65
-80 107 -32 41 -89 126 -127 189 -39 62 -86 131 -106 152 -36 40 -43 56 -25
56 6 0 10 -5 10 -12 0 -6 3 -8 6 -5 8 7 -45 113 -80 162 -12 17 -47 73 -78
125 -32 52 -76 112 -98 134 -47 45 -93 111 -149 219 -22 44 -54 94 -70 112
-16 19 -32 43 -36 54 -8 26 -62 115 -97 161 -15 19 -33 46 -40 60 -18 35 -91
129 -101 130 -4 0 -11 -8 -14 -17z m-376 -1305 c-3 -7 -5 -2 -5 12 0 14 2 19
5 13 2 -7 2 -19 0 -25z m-80 -260 c-3 -7 -5 -2 -5 12 0 14 2 19 5 13 2 -7 2
-19 0 -25z m610 -300 c-3 -8 -6 -5 -6 6 -1 11 2 17 5 13 3 -3 4 -12 1 -19z"/>
<path d="M6408 2023 c-8 -10 -13 -23 -11 -30 2 -6 -4 -24 -14 -39 -18 -28 -25
-69 -24 -141 1 -33 12 -59 46 -113 51 -78 94 -115 145 -124 101 -18 310 -45
343 -46 20 0 37 -4 37 -9 0 -13 32 -23 39 -13 9 15 68 24 178 29 90 4 102 2
97 -11 -5 -13 3 -16 47 -16 45 1 69 9 142 49 48 26 95 58 103 70 9 12 17 46
19 76 2 42 -1 57 -15 70 -19 17 -122 43 -284 71 -49 8 -121 26 -160 39 -139
45 -212 65 -276 74 -63 9 -348 66 -381 76 -9 3 -23 -3 -31 -12z"/>
<path d="M2279 1923 c-1 -5 -1 -12 0 -17 1 -5 -5 -6 -13 -3 -9 4 -29 -9 -51
-31 -25 -26 -38 -33 -43 -25 -6 9 -18 6 -45 -14 -44 -31 -58 -25 -28 13 12 15
19 30 15 33 -6 6 -41 -33 -106 -118 -23 -30 -47 -62 -54 -70 -8 -9 -36 -45
-64 -81 -28 -36 -58 -73 -66 -83 -8 -9 -14 -21 -14 -25 0 -13 -88 -102 -102
-103 -7 -1 -19 0 -27 1 -9 1 -12 -4 -8 -14 5 -11 1 -16 -13 -16 -11 0 -27 -12
-37 -27 -24 -39 -149 -190 -196 -236 -29 -30 -35 -42 -27 -52 8 -10 5 -19 -13
-39 -24 -26 -47 -34 -47 -18 0 5 9 17 20 27 17 15 17 19 4 32 -13 13 -17 12
-35 -11 -11 -14 -26 -32 -33 -39 -20 -20 -90 -120 -105 -149 -8 -15 -21 -36
-30 -45 -9 -10 -30 -36 -46 -58 -17 -22 -63 -77 -102 -122 -40 -46 -73 -86
-73 -91 0 -4 -18 -28 -40 -52 -21 -25 -44 -50 -50 -57 -5 -7 -9 -16 -8 -20 3
-11 -19 -49 -45 -76 -12 -13 -53 -65 -92 -116 -38 -51 -87 -112 -107 -137 -21
-25 -38 -49 -38 -55 0 -5 -9 -9 -19 -9 -11 0 -23 -4 -26 -10 -4 -7 563 -10
1695 -10 l1701 0 -18 27 c-10 16 -27 46 -38 68 -10 22 -42 76 -71 120 -28 44
-64 102 -78 129 -15 27 -38 63 -52 81 -13 18 -24 37 -24 43 0 14 -23 58 -63
119 -15 24 -27 46 -27 51 0 5 -9 17 -20 27 -11 10 -20 26 -20 35 0 9 -11 32
-25 51 -14 19 -36 57 -49 84 -23 48 -83 146 -106 172 -5 7 -10 16 -10 22 0 16
-41 88 -71 122 -16 19 -29 37 -29 41 0 3 -30 27 -67 53 -38 25 -88 61 -113 80
-25 19 -65 49 -89 67 -24 18 -78 64 -120 102 -42 38 -113 93 -158 123 -45 29
-98 73 -119 96 -43 48 -113 101 -121 93 -3 -3 -1 -12 5 -19 14 -16 6 -27 -18
-27 -25 0 -66 49 -94 113 -24 53 -34 67 -37 50z"/>
<path d="M7180 1520 c0 -5 7 -10 15 -10 8 0 15 5 15 10 0 6 -7 10 -15 10 -8 0
-15 -4 -15 -10z"/>
<path d="M1380 1105 c-8 -9 -8 -15 -2 -15 12 0 26 19 19 26 -2 2 -10 -2 -17
-11z"/>
</g>
</svg>
