<?xml version="1.0" standalone="no"?>
<!DOCTYPE svg PUBLIC "-//W3C//DTD SVG 20010904//EN"
 "http://www.w3.org/TR/2001/REC-SVG-20010904/DTD/svg10.dtd">
<svg version="1.0" xmlns="http://www.w3.org/2000/svg"
 width="850.000000pt" height="850.000000pt" viewBox="0 0 850.000000 850.000000"
 preserveAspectRatio="xMidYMid meet">
<metadata>
Created by potrace 1.14, written by Peter Selinger 2001-2017
</metadata>
<g transform="translate(0.000000,850.000000) scale(0.100000,-0.100000)"
fill="#000000" stroke="none">
<path d="M5500 6670 c-30 -16 -83 -41 -117 -56 -68 -30 -105 -63 -124 -109 -6
-16 -14 -86 -16 -155 -3 -69 -10 -168 -17 -220 l-11 -95 -210 -2 c-247 -2
-376 -14 -500 -43 -49 -12 -99 -23 -110 -24 -35 -4 -97 -18 -190 -42 -49 -13
-95 -24 -101 -24 -12 0 -49 123 -64 215 -18 107 -38 186 -51 201 -7 9 -33 26
-58 39 -25 13 -66 42 -91 65 -64 60 -81 70 -115 70 -19 0 -38 8 -48 21 -20 23
4 23 -292 -1 -140 -11 -236 -25 -305 -45 -221 -65 -515 -117 -610 -107 -42 4
-235 -27 -302 -49 -35 -11 -79 -21 -99 -23 -20 -2 -41 -6 -47 -10 -6 -4 -42
-9 -79 -11 -129 -8 -165 -16 -170 -36 -4 -14 -14 -19 -44 -19 -21 0 -41 -4
-44 -10 -10 -16 -35 -12 -29 5 8 21 -49 20 -107 -1 -24 -8 -69 -20 -99 -25
-30 -5 -77 -15 -105 -23 -27 -8 -89 -22 -136 -31 -116 -23 -127 -30 -149 -93
-21 -65 -39 -85 -77 -85 -318 4 -356 2 -389 -13 -29 -14 -56 -16 -162 -10 -70
3 -196 7 -279 8 l-153 3 0 -256 0 -257 98 -4 c62 -3 109 -10 132 -21 22 -10
85 -21 170 -27 153 -13 377 -28 431 -29 35 -1 36 -3 53 -58 9 -32 23 -92 31
-133 29 -157 48 -249 71 -355 13 -60 35 -175 49 -255 14 -80 34 -194 45 -255
10 -60 22 -130 25 -155 4 -25 15 -81 25 -125 10 -44 23 -109 28 -145 19 -126
61 -301 79 -333 22 -36 63 -66 178 -127 44 -24 104 -56 134 -71 29 -16 62 -29
73 -29 10 0 36 -11 56 -25 43 -30 66 -31 227 -9 66 9 129 16 140 15 11 0 27 0
35 -1 8 0 40 4 70 10 30 5 82 12 115 15 33 3 128 15 210 26 155 22 287 39 435
58 47 6 110 15 140 21 30 5 114 19 185 30 72 11 139 23 150 27 10 3 58 12 105
19 112 17 307 51 673 115 63 12 70 15 111 63 55 65 142 180 157 208 14 26 6
108 -30 313 -19 112 -76 407 -91 473 -6 23 -10 53 -10 67 0 13 -9 59 -19 102
-19 75 -28 122 -56 283 -16 87 -21 113 -38 195 -6 33 -12 76 -12 95 0 32 4 37
50 60 280 140 505 197 710 179 96 -9 225 -40 254 -63 14 -11 12 -172 -10 -651
-6 -132 -10 -260 -9 -285 5 -75 4 -121 -4 -222 -10 -122 -9 -105 -8 -225 2
-93 4 -104 28 -132 26 -32 147 -132 197 -164 15 -10 64 -47 109 -83 140 -112
154 -118 277 -116 100 2 248 -8 424 -29 43 -5 196 -14 340 -19 215 -9 274 -15
327 -32 79 -25 386 -45 433 -28 16 5 33 8 37 5 5 -3 51 -14 104 -25 75 -15
150 -20 358 -24 l262 -5 56 57 c31 31 72 72 91 89 79 75 91 94 100 157 13 101
21 140 30 152 19 24 49 340 50 512 0 106 3 127 21 158 14 24 21 55 23 98 1 34
5 68 9 74 4 7 9 74 11 150 8 254 24 526 39 672 17 165 21 316 7 325 -5 3 -11
-9 -13 -27 -4 -46 -28 -46 -58 -1 -22 34 -25 50 -28 153 -3 156 -4 156 -48
156 -26 0 -42 7 -54 22 -10 12 -21 22 -23 22 -3 0 -19 13 -35 29 -19 19 -26
33 -20 39 7 7 1 16 -16 27 -14 9 -28 24 -31 34 -4 13 -13 16 -39 13 -32 -4
-36 -1 -49 30 -14 33 -18 35 -76 41 -34 3 -68 11 -77 18 -11 9 -88 13 -293 14
-153 1 -283 5 -288 8 -6 4 -46 9 -89 13 -44 3 -97 10 -119 14 -37 8 -125 15
-310 25 -83 4 -283 19 -560 40 -303 23 -468 33 -595 39 -111 4 -117 3 -170
-24z m425 -479 c46 -13 294 -33 440 -36 56 -1 107 -5 114 -9 7 -4 47 -5 90 -1
54 5 101 2 157 -9 96 -18 303 -39 439 -44 113 -4 236 -16 310 -30 28 -5 127
-13 220 -17 l170 -7 53 -40 c93 -72 94 -74 89 -255 -5 -167 -10 -208 -33 -260
-8 -18 -19 -93 -24 -170 -6 -76 -15 -176 -20 -223 -6 -47 -13 -123 -15 -170
-3 -47 -7 -110 -10 -140 -2 -30 -9 -131 -15 -225 -5 -93 -12 -210 -16 -260
l-7 -90 -56 -57 -56 -56 -175 8 c-96 5 -236 13 -310 19 -122 10 -344 26 -505
36 -33 3 -87 7 -120 10 -33 3 -104 7 -157 10 -53 3 -161 10 -240 15 -79 6
-174 12 -213 14 -38 2 -100 7 -136 11 -57 6 -69 11 -78 32 -14 31 -14 31 7 35
13 3 -3 25 -67 91 l-85 87 3 317 c1 175 4 320 7 324 3 5 5 142 3 249 -2 121
13 723 19 747 5 20 24 45 57 72 54 44 71 47 160 22z m-2473 -204 c21 -7 41
-16 44 -20 4 -4 15 -7 25 -7 25 0 47 -36 55 -90 3 -25 12 -64 20 -87 7 -24 18
-66 23 -95 4 -29 17 -100 29 -158 24 -127 48 -269 63 -370 6 -41 14 -88 19
-105 4 -16 18 -86 29 -155 32 -187 42 -233 52 -252 5 -10 9 -31 9 -48 0 -17 9
-70 19 -118 11 -48 25 -139 31 -202 11 -107 11 -115 -6 -125 -10 -5 -27 -19
-39 -30 -62 -58 -98 -74 -185 -80 -47 -4 -119 -14 -160 -22 -73 -14 -119 -22
-285 -44 -44 -6 -111 -15 -150 -20 -38 -5 -97 -14 -130 -19 -33 -6 -103 -15
-155 -19 -113 -11 -251 -30 -261 -36 -4 -3 -65 -12 -136 -20 -70 -8 -165 -19
-210 -25 -308 -38 -308 -38 -351 -2 -34 28 -72 115 -72 164 0 15 -5 39 -11 55
-10 26 -19 70 -55 273 -8 47 -25 128 -38 180 -13 52 -29 120 -35 150 -29 143
-61 292 -80 365 -12 44 -21 91 -21 104 0 13 -11 69 -24 125 -49 213 -50 217
-39 234 17 28 30 54 63 122 43 88 53 97 113 103 29 4 77 11 107 17 145 28 379
60 439 60 36 1 86 5 111 11 95 20 278 51 354 60 43 5 111 16 152 24 40 8 84
15 98 15 14 0 51 7 83 16 32 9 82 20 110 24 49 8 160 30 243 49 54 13 111 12
152 -2z m-3295 -83 c-3 -3 -12 -4 -19 -1 -8 3 -5 6 6 6 11 1 17 -2 13 -5z
m7664 -1797 c-13 -13 -26 -3 -16 12 3 6 11 8 17 5 6 -4 6 -10 -1 -17z"/>
<path d="M6832 5565 c-149 -42 -255 -157 -282 -305 -31 -174 49 -332 216 -426
140 -78 268 -83 401 -15 222 113 271 423 96 606 -113 118 -297 178 -431 140z
m263 -292 c43 -48 28 -83 -37 -83 -35 0 -38 2 -38 30 0 37 19 80 36 80 7 0 25
-12 39 -27z"/>
<path d="M2570 5345 c-112 -32 -227 -131 -282 -244 -31 -61 -33 -72 -33 -171
0 -93 3 -112 27 -162 52 -113 157 -193 285 -219 124 -26 254 21 364 130 105
106 147 220 128 356 -30 222 -267 372 -489 310z m184 -328 c30 -39 33 -69 10
-91 -23 -23 -50 -20 -85 12 -26 24 -29 30 -21 53 13 32 39 59 57 59 8 0 25
-15 39 -33z"/>
<path d="M1683 6223 c9 -2 25 -2 35 0 9 3 1 5 -18 5 -19 0 -27 -2 -17 -5z"/>
<path d="M5475 3075 c-5 -2 -43 -13 -83 -25 -67 -19 -75 -24 -88 -57 -10 -23
-13 -46 -7 -67 9 -40 5 -157 -8 -172 -5 -6 -6 -14 -2 -17 3 -4 -1 -22 -10 -39
-9 -18 -23 -59 -32 -90 -17 -63 -24 -69 -130 -109 -50 -19 -62 -20 -113 -9
-31 7 -85 14 -118 17 -58 4 -64 3 -97 -26 -19 -17 -39 -31 -44 -31 -16 0 -71
-64 -78 -92 -4 -14 -15 -34 -26 -44 -10 -9 -19 -21 -19 -26 0 -14 58 -35 130
-47 36 -7 74 -16 85 -21 23 -10 107 -30 150 -35 17 -2 37 -6 45 -8 110 -29
191 -14 332 61 98 52 110 62 149 120 24 36 43 77 45 95 1 18 8 86 15 152 17
145 16 388 -1 439 -11 33 -15 36 -48 35 -20 0 -41 -2 -47 -4z"/>
<path d="M8126 1263 c-9 -22 -7 -61 3 -67 5 -3 11 -17 14 -32 4 -23 2 -25 -19
-20 -24 6 -35 -4 -40 -38 -2 -12 -14 -52 -28 -91 -14 -38 -26 -78 -26 -87 0
-10 -9 -26 -21 -37 -12 -11 -18 -24 -15 -29 3 -5 -1 -16 -10 -23 -23 -19 -59
-100 -48 -107 5 -4 15 -15 23 -25 13 -16 9 -24 -41 -75 -48 -49 -56 -64 -62
-106 -3 -27 -10 -54 -14 -60 -5 -6 -14 -36 -21 -66 -6 -30 -16 -71 -21 -90
-27 -95 -60 -251 -60 -279 l0 -31 380 0 380 0 0 365 c0 402 1 396 -64 470 -15
17 -35 49 -46 72 -10 24 -46 82 -78 130 -33 49 -65 98 -72 111 -6 13 -33 47
-60 77 -36 39 -50 50 -54 38z"/>
<path d="M4398 1223 c-9 -10 -13 -24 -11 -30 3 -7 -5 -29 -17 -48 -16 -25 -22
-52 -22 -98 -1 -60 2 -69 48 -142 27 -43 63 -88 79 -100 38 -29 124 -50 295
-70 74 -9 147 -23 161 -31 24 -12 31 -12 55 1 33 17 100 20 109 5 4 -6 54 -10
118 -10 l112 0 91 44 c78 38 142 88 145 114 9 75 4 109 -16 124 -22 17 -157
50 -280 69 -59 9 -130 27 -190 48 -85 30 -181 54 -280 71 -60 10 -164 30 -230
44 -141 31 -147 31 -167 9z m752 -504 c0 -5 -7 -9 -15 -9 -8 0 -15 7 -15 15 0
9 6 12 15 9 8 -4 15 -10 15 -15z"/>
<path d="M130 1111 c-19 -20 -56 -61 -82 -91 l-48 -54 0 -483 0 -483 721 0
720 0 -7 23 c-10 34 -43 95 -54 102 -6 4 -27 39 -46 78 -58 113 -128 210 -172
234 -21 12 -58 40 -83 61 -24 21 -72 58 -107 81 -35 24 -85 63 -110 89 -64 62
-149 130 -195 153 -21 11 -67 49 -104 84 -36 36 -87 81 -114 100 l-48 36 -3
-27 -3 -26 -27 21 c-16 13 -33 43 -43 76 -12 36 -24 57 -37 61 -11 3 -20 4
-21 2 -24 -46 -57 -65 -57 -33 0 12 -6 15 -19 10 -12 -4 -21 -1 -23 8 -2 9
-15 2 -38 -22z"/>
</g>
</svg>
